<svg xmlns="http://www.w3.org/2000/svg" width="240" height="240" viewBox="0 0 240 240">
  <path fill="#FC8657" fill-rule="evenodd" d="M173.26888,64 C179.195514,64 184,68.8044859 184,74.7311196 L184,165.26888 C184,171.195514 179.195514,176 173.26888,176 L164.414578,176 C163.225556,176 162.098164,175.471023 161.338213,174.556556 L120.249157,125.113112 C117.78613,122.149293 117.78613,117.850707 120.249157,114.886888 L161.338213,65.443444 C162.098164,64.528977 163.225556,64 164.414578,64 L173.26888,64 Z M88,64 C96.836556,64 104,71.163444 104,80 L104,160 C104,168.836556 96.836556,176 88,176 L80,176 C71.163444,176 64,168.836556 64,160 L64,80 C64,71.163444 71.163444,64 80,64 L88,64 Z"/>
</svg>
