<svg xmlns="http://www.w3.org/2000/svg" width="18" height="21" viewBox="0 0 18 21">
  <g fill="none" fill-rule="evenodd">
    <path fill="#000" stroke="#FFF" d="M10.5,0.5 C11.8381141,0.5 13.0534444,1.02566037 13.9508029,1.88170782 C14.7947907,2.68684161 15.3573517,3.78428776 15.4764153,5.01151802 L15.4950816,5.27642319 L15.4990977,7.5 L16,7.5 C16.4142136,7.5 16.7892136,7.66789322 17.0606602,7.93933983 C17.298176,8.17685561 17.4564087,8.49365446 17.4922557,8.84663371 L17.5,9 L17.5,19 C17.5,19.4142136 17.3321068,19.7892136 17.0606602,20.0606602 C16.8231444,20.298176 16.5063455,20.4564087 16.1533663,20.4922557 L16,20.5 L2,20.5 C1.58578644,20.5 1.21078644,20.3321068 0.939339828,20.0606602 C0.701824045,19.8231444 0.543591326,19.5063455 0.507744331,19.1533663 L0.5,19 L0.5,9 C0.5,8.58578644 0.667893219,8.21078644 0.939339828,7.93933983 C1.17685561,7.70182404 1.49365446,7.54359133 1.84663371,7.50774433 L2,7.5 L2.5,7.5 L2.5,5.5 C2.5,4.16188594 3.02566037,2.94655562 3.88170782,2.04919714 C4.68685612,1.20519409 5.7843273,0.64262807 7.01158434,0.52357829 L7.27649527,0.504915203 L10.5,0.5 Z M10.4765756,4.5 L7.5,4.5 L7.37274836,4.508177 C7.16441861,4.53525819 6.97628639,4.62872633 6.82959146,4.77542125 C6.64754101,4.95747171 6.53093438,5.21662162 6.5,5.52342438 L6.5,5.52342438 L6.5,7.5 L11.5,7.5 L11.5,5.5 L11.491823,5.37274836 C11.4647418,5.16441861 11.3712737,4.97628639 11.2245787,4.82959146 C11.0425283,4.64754101 10.7833784,4.53093438 10.4765756,4.5 L10.4765756,4.5 Z"/>
    <path fill="#FFF" d="M9,11 C10.1045695,11 11,11.8954305 11,13 C11,13.7398375 10.5982846,14.3858493 10.0010775,14.7318119 L10,17 L8,17 L7.99992752,14.7323937 C7.40216612,14.3865739 7,13.7402524 7,13 C7,11.8954305 7.8954305,11 9,11 Z"/>
  </g>
</svg>
