<?xml version="1.0" encoding="UTF-8"?>
<svg width="240px" height="240px" viewBox="0 0 240 240" version="1.1" xmlns="http://www.w3.org/2000/svg" xmlns:xlink="http://www.w3.org/1999/xlink">
    <!-- Generator: Sketch 56.3 (81716) - https://sketch.com -->
    <title>externalService</title>
    <desc>Created with Sketch.</desc>
    <g id="externalService" stroke="none" stroke-width="1" fill="none" fill-rule="evenodd">
        <path d="M142.058875,64 L126.058875,80 L80,80 L80,160 L160,160 L160,113.941125 L176,97.9411255 L176,160 C176,168.836556 168.836556,176 160,176 L80,176 C71.163444,176 64,168.836556 64,160 L64,80 C64,71.163444 71.163444,64 80,64 L142.058875,64 Z" id="Path" fill="#FC8657" fill-rule="nonzero"></path>
        <path d="M152,56 C147.581722,56 144,52.418278 144,48 C144,43.581722 147.581722,40 152,40 L192,40 C193.084719,40 194.119016,40.215884 195.062268,40.60703 C196.005831,40.9974282 196.889842,41.5761334 197.656854,42.3431458 C198.423867,43.1101581 199.002572,43.9941694 199.39297,44.9377316 C199.784116,45.8809839 200,46.9152808 200,48 L200,88 C200,92.418278 196.418278,96 192,96 C187.581722,96 184,92.418278 184,88 L184,67.3137085 L133.656854,117.656854 C130.53266,120.781049 125.46734,120.781049 122.343146,117.656854 C119.218951,114.53266 119.218951,109.46734 122.343146,106.343146 L172.686292,56 L152,56 Z" id="Path" fill="#FC8657" fill-rule="nonzero"></path>
    </g>
</svg>