<svg xmlns="http://www.w3.org/2000/svg" width="240" height="240" viewBox="0 0 240 240">
  <path fill="#FC8657" fill-rule="evenodd" d="M105.160975,64 L112.719743,64 C113.734792,64 114.697227,64.528977 115.345984,65.443444 L150.423017,114.886888 C152.525661,117.850707 152.525661,122.149293 150.423017,125.113112 L115.345984,174.556556 C114.697227,175.471023 113.734792,176 112.719743,176 L105.160975,176 C100.101508,176 96,171.195514 96,165.26888 L96,74.7311196 C96,68.8044859 100.101508,64 105.160975,64 Z M33.1609754,64 L40.7197433,64 C41.7347919,64 42.6972269,64.528977 43.345984,65.443444 L78.4230168,114.886888 C80.5256611,117.850707 80.5256611,122.149293 78.4230168,125.113112 L43.345984,174.556556 C42.6972269,175.471023 41.7347919,176 40.7197433,176 L33.1609754,176 C28.1015084,176 24,171.195514 24,165.26888 L24,74.7311196 C24,68.8044859 28.1015084,64 33.1609754,64 Z M184,64 L192,64 C200.836556,64 208,71.163444 208,80 L208,160 C208,168.836556 200.836556,176 192,176 L184,176 C175.163444,176 168,168.836556 168,160 L168,80 C168,71.163444 175.163444,64 184,64 Z" transform="matrix(-1 0 0 1 232 0)"/>
</svg>
