<svg xmlns="http://www.w3.org/2000/svg" width="240" height="240" viewBox="0 0 240 240">
  <path fill="#FC8657" fill-rule="evenodd" d="M120,64 C111.163444,64 104,56.836556 104,48 C104,39.163444 111.163444,32 120,32 C128.836556,32 136,39.163444 136,48 C136,56.836556 128.836556,64 120,64 Z M168.497423,92 C164.079145,84.347318 166.701147,74.5618715 174.353829,70.1435935 C182.006511,65.7253155 191.791958,68.347318 196.210236,76 C200.628514,83.652682 198.006511,93.4381285 190.353829,97.8564065 C182.701147,102.274684 172.915701,99.652682 168.497423,92 Z M168.497423,148 C172.915701,140.347318 182.701147,137.725316 190.353829,142.143594 C198.006511,146.561872 200.628514,156.347318 196.210236,164 C191.791958,171.652682 182.006511,174.274684 174.353829,169.856406 C166.701147,165.438128 164.079145,155.652682 168.497423,148 Z M120,176 C128.836556,176 136,183.163444 136,192 C136,200.836556 128.836556,208 120,208 C111.163444,208 104,200.836556 104,192 C104,183.163444 111.163444,176 120,176 Z M71.5025774,148 C75.9208554,155.652682 73.2988529,165.438128 65.6461709,169.856406 C57.993489,174.274684 48.2080425,171.652682 43.7897645,164 C39.3714865,156.347318 41.993489,146.561872 49.6461709,142.143594 C57.2988529,137.725316 67.0842994,140.347318 71.5025774,148 Z M71.5025774,92 C67.0842994,99.652682 57.2988529,102.274684 49.6461709,97.8564065 C41.993489,93.4381285 39.3714865,83.652682 43.7897645,76 C48.2080425,68.347318 57.993489,65.7253155 65.6461709,70.1435935 C73.2988529,74.5618715 75.9208554,84.347318 71.5025774,92 Z"/>
</svg>
