<svg xmlns="http://www.w3.org/2000/svg" width="240" height="240" viewBox="0 0 240 240">
  <path fill="#FC8657" d="M144,64 L144,54.3382284 C144,50.8377215 146.837722,48 150.338228,48 L155.359365,48 C156.214835,48 157.047771,48.2742632 157.735885,48.7825235 L191.28797,73.5650471 C194.841896,76.1900781 195.594915,81.1991127 192.969884,84.7530391 C192.496189,85.3943557 191.929287,85.9612582 191.28797,86.4349529 L157.735885,111.217476 C157.047771,111.725737 156.214835,112 155.359365,112 L150.338228,112 C146.837722,112 144,109.162278 144,105.661772 L144,96 L72,96 C67.581722,96 64,99.581722 64,104 L64,144 C64,148.418278 67.581722,152 72,152 L168,152 C172.418278,152 176,148.418278 176,144 L176,132.154662 C176,129.652449 177.170757,127.294362 179.164044,125.781788 L195.164044,113.640437 C198.683685,110.969612 203.702049,111.657714 206.372874,115.177355 C207.428548,116.568533 208,118.266937 208,120.013312 L208,144 C208,166.09139 190.09139,184 168,184 L72,184 C49.90861,184 32,166.09139 32,144 L32,104 C32,81.90861 49.90861,64 72,64 L144,64 Z"/>
</svg>
