<svg xmlns="http://www.w3.org/2000/svg" width="240" height="240" viewBox="0 0 240 240">
  <path fill="#FC8657" fill-rule="evenodd" d="M152,140.5 L64,140.5 L64,100.5 L152,100.5 L152,88 C152,83.581722 155.581722,80 160,80 L166.635497,80 C167.520138,80 168.379823,80.2932608 169.08004,80.8338966 L211.605585,113.667793 C215.102766,116.36796 215.748874,121.391904 213.048706,124.889085 C212.631249,125.429764 212.146263,125.91475 211.605585,126.332207 L169.08004,159.166103 C168.379823,159.706739 167.520138,160 166.635497,160 L160,160 C155.581722,160 152,156.418278 152,152 L152,140.5 Z M48,140.5 L32,140.5 L32,100.5 L48,100.5 L48,140.5 Z"/>
</svg>
