<svg xmlns="http://www.w3.org/2000/svg" width="240" height="240" viewBox="0 0 240 240">
  <g fill="none" fill-rule="evenodd">
    <path fill="#FC8657" d="M112,8 L128,8 L128,32 L112,32 L112,8 Z M187.882251,32.8040405 L199.195959,44.117749 L182.225397,61.0883118 L170.911688,49.7746033 L187.882251,32.8040405 Z M224,104 L224,120 L200,120 L200,104 L224,104 Z M199.195959,179.882251 L187.882251,191.195959 L170.911688,174.225397 L182.225397,162.911688 L199.195959,179.882251 Z M52.117749,191.195959 L40.8040405,179.882251 L57.7746033,162.911688 L69.0883118,174.225397 L52.117749,191.195959 Z M16,120 L16,104 L40,104 L40,120 L16,120 Z M40.8040405,44.117749 L52.117749,32.8040405 L69.0883118,49.7746033 L57.7746033,61.0883118 L40.8040405,44.117749 Z"/>
    <path fill="#FC8657" fill-rule="nonzero" d="M99.4327386,155.384866 L104,157.554535 L104,208 L136,208 L136,157.554535 L140.567261,155.384866 C157.185985,147.490171 168,130.723561 168,112 C168,85.490332 146.509668,64 120,64 C93.490332,64 72,85.490332 72,112 C72,130.723561 82.8140155,147.490171 99.4327386,155.384866 Z M56,112 C56,76.653776 84.653776,48 120,48 C155.346224,48 184,76.653776 184,112 C184,135.198439 171.541676,156.150225 152,167.438186 L152,208 C152,216.836556 144.836556,224 136,224 L104,224 C95.163444,224 88,216.836556 88,208 L88,167.438186 C68.458324,156.150225 56,135.198439 56,112 Z"/>
    <polygon fill="#FC8657" fill-rule="nonzero" points="96 184 96 168 144 168 144 184"/>
  </g>
</svg>
