<?xml version="1.0" encoding="UTF-8"?>
<svg width="300px" height="300px" viewBox="0 0 300 300" version="1.1" xmlns="http://www.w3.org/2000/svg" xmlns:xlink="http://www.w3.org/1999/xlink">
    <!-- Generator: Sketch 55.2 (78181) - https://sketchapp.com -->
    <title>kaeru_gallery</title>
    <desc>Created with Sketch.</desc>
    <defs>
        <linearGradient x1="50%" y1="0%" x2="50%" y2="100%" id="linearGradient-1">
            <stop stop-color="#718FAF" offset="0%"></stop>
            <stop stop-color="#476E94" offset="100%"></stop>
        </linearGradient>
        <linearGradient x1="50%" y1="50%" x2="50%" y2="100%" id="linearGradient-2">
            <stop stop-color="#00EBA6" offset="0%"></stop>
            <stop stop-color="#35E576" offset="100%"></stop>
        </linearGradient>
    </defs>
    <g id="kaeru_gallery" stroke="none" stroke-width="1" fill="none" fill-rule="evenodd">
        <path d="M77.6379109,211.502116 C73.9107723,195.398438 71.6262553,177.81325 71.0455874,159.375 L18.4194715,159.375 C19.735744,178.332321 25.0131103,196.188875 33.4228116,212.109375 L77.5275557,212.109375 L74.2905522,229.921833 C74.2335619,230.235437 74.1850844,230.548022 74.144945,230.859375 L45.4436102,230.859375 C60.7119782,250.772799 81.4869697,266.179055 105.468873,274.760323 C99.9406889,267.718154 94.9453845,259.38453 90.5808267,249.99488 C90.7253534,249.998287 90.8704364,250 91.0160592,250 L110.253467,250 C119.305333,266.680948 130.477243,277.875367 142.382812,281.268666 L142.382813,244.519825 C145.456988,247.881487 149.922828,250 155.049223,250 L159.960938,250 L159.960938,280.496847 C170.985991,276.376133 181.291177,265.581687 189.746532,250.000003 L190.780806,250 C195.254942,250 199.603858,248.351691 203.049507,245.480266 C210.590639,239.195876 212.638151,227.998341 206.116377,220.181007 L199.382458,212.109384 L204.088437,212.109386 C207.03501,200.553713 209.20531,187.959901 210.417016,174.632336 C218.87517,166.789486 224.348213,156.970763 226.422985,145.273956 C229.23925,129.396893 221.532336,114.6868 208.360761,108.758651 C207.21542,101.49896 205.779819,94.5237613 204.088439,87.890625 L168.472444,87.890625 L171.709448,70.0781667 C171.766438,69.7645627 171.814916,69.4519777 171.855055,69.140625 L198.305604,69.140625 C188.809381,43.3078353 175.060272,25.1466672 159.960938,19.5031533 L159.960938,50.704191 C158.398588,50.2463457 156.730068,50 154.983941,50 L142.382813,50 L142.382813,18.7313337 C126.367505,23.2959817 111.67979,41.9771324 101.694396,69.140625 L103.508829,69.140625 L100.10145,87.8906154 L95.9115634,87.8906145 C91.8621314,103.771402 89.2788167,121.61288 88.6348395,140.625 L90.5181921,140.625 L77.6379109,211.502116 Z M150,300 C67.1572875,300 0,232.842712 0,150 C0,67.1572875 67.1572875,0 150,0 C232.842712,0 300,67.1572875 300,150 C300,232.842712 232.842712,300 150,300 Z M280.408654,159.375 L228.954413,159.375 C228.366437,178.045284 226.031459,195.840899 222.220693,212.109375 L265.405313,212.109375 C273.815015,196.188875 279.092381,178.332321 280.408654,159.375 Z M194.99735,274.161717 L194.997361,274.161713 C218.287235,265.472983 238.464858,250.318 253.384515,230.859375 L216.955885,230.85938 C211.292144,247.9624 203.83706,262.722664 194.99735,274.161717 Z M18.4194715,140.625 L71.0455874,140.625 C71.6335626,121.954716 73.9685405,104.159101 77.7793068,87.890625 L33.4228116,87.890625 C25.0131103,103.811125 19.735744,121.667679 18.4194715,140.625 Z M105.468873,25.2396773 C81.4869697,33.8209454 60.7119782,49.2272012 45.4436102,69.140625 L83.0441147,69.1406198 C88.8071575,51.7377357 96.4249077,36.7604782 105.46888,25.2396746 Z M280.408654,140.625 C279.092381,121.667679 273.815015,103.811125 265.405313,87.890625 L222.220693,87.890625 C226.031459,104.159101 228.366437,121.954716 228.954413,140.625 L280.408654,140.625 Z M194.997361,25.8382874 L194.99735,25.8382833 C203.83706,37.2773362 211.292144,52.0375998 216.955887,69.140625 L253.384515,69.140625 C238.464858,49.6820001 218.287235,34.5270174 194.997361,25.8382874 Z" id="globe" fill="url(#linearGradient-1)" opacity="0.3"></path>
        <path d="M161.095581,175.955909 L166.195114,147.206618 C169.767978,127.064123 184.11202,118 195.224636,118 C208.396003,118 216.975311,129.828848 214.607425,143.178119 C211.661836,159.784265 199.947795,171.238333 181.218001,178.073899 C178.134501,179.199243 173.514794,180.455551 167.358879,181.842823 C164.017387,182.595844 161.173772,180.570632 161.007487,177.319382 C160.98462,176.872283 161.014175,176.414843 161.095581,175.955909 Z M123,62 L154.983941,62 C158.295986,62 160.498243,64.6561085 159.902819,67.9325843 L130.075099,232.067416 C129.479675,235.343892 126.312046,238 123,238 L91.0160592,238 C87.7040137,238 85.5017568,235.343892 86.0971807,232.067416 L115.924901,67.9325843 C116.520325,64.6561085 119.687954,62 123,62 Z M167.594044,192.738322 L196.901971,227.868316 C198.835613,230.186079 198.148478,233.943915 195.367213,236.261678 C194.031602,237.374707 192.381822,238 190.780806,238 L155.049223,238 C151.71528,238 149.498463,235.342809 150.097823,232.064997 L156.521479,196.935003 C157.120839,193.657191 160.309412,191 163.643355,191 C165.244371,191 166.665476,191.625293 167.594044,192.738322 Z" id="k" fill="url(#linearGradient-2)"></path>
    </g>
</svg>