<svg xmlns="http://www.w3.org/2000/svg" width="240" height="240" viewBox="0 0 240 240">
  <path fill="#FC8657" fill-rule="evenodd" d="M192,64 L200,64 C208.836556,64 216,71.163444 216,80 L216,160 C216,168.836556 208.836556,176 200,176 L192,176 C183.163444,176 176,168.836556 176,160 L176,80 C176,71.163444 183.163444,64 192,64 Z M113.160975,64 L120.719743,64 C121.734792,64 122.697227,64.528977 123.345984,65.443444 L158.423017,114.886888 C160.525661,117.850707 160.525661,122.149293 158.423017,125.113112 L123.345984,174.556556 C122.697227,175.471023 121.734792,176 120.719743,176 L113.160975,176 C108.101508,176 104,171.195514 104,165.26888 L104,74.7311196 C104,68.8044859 108.101508,64 113.160975,64 Z M41.1609754,64 L48.7197433,64 C49.7347919,64 50.6972269,64.528977 51.345984,65.443444 L86.4230168,114.886888 C88.5256611,117.850707 88.5256611,122.149293 86.4230168,125.113112 L51.345984,174.556556 C50.6972269,175.471023 49.7347919,176 48.7197433,176 L41.1609754,176 C36.1015084,176 32,171.195514 32,165.26888 L32,74.7311196 C32,68.8044859 36.1015084,64 41.1609754,64 Z"/>
</svg>
