<svg xmlns="http://www.w3.org/2000/svg" width="240" height="240" viewBox="0 0 240 240">
  <path fill="#FC8657" fill-rule="evenodd" d="M66.7311196,64 L75.5854216,64 C76.7744444,64 77.9018358,64.528977 78.6617866,65.443444 L119.750843,114.886888 C122.21387,117.850707 122.21387,122.149293 119.750843,125.113112 L78.6617866,174.556556 C77.9018358,175.471023 76.7744444,176 75.5854216,176 L66.7311196,176 C60.8044859,176 56,171.195514 56,165.26888 L56,74.7311196 C56,68.8044859 60.8044859,64 66.7311196,64 Z M152,64 L160,64 C168.836556,64 176,71.163444 176,80 L176,160 C176,168.836556 168.836556,176 160,176 L152,176 C143.163444,176 136,168.836556 136,160 L136,80 C136,71.163444 143.163444,64 152,64 Z"/>
</svg>
