<svg xmlns="http://www.w3.org/2000/svg" width="240" height="240" viewBox="0 0 240 240">
  <path fill="#FC8657" fill-rule="evenodd" d="M64,48 L88,48 C96.836556,48 104,55.163444 104,64 L104,176 C104,184.836556 96.836556,192 88,192 L64,192 C55.163444,192 48,184.836556 48,176 L48,64 C48,55.163444 55.163444,48 64,48 Z M152,48 L176,48 C184.836556,48 192,55.163444 192,64 L192,176 C192,184.836556 184.836556,192 176,192 L152,192 C143.163444,192 136,184.836556 136,176 L136,64 C136,55.163444 143.163444,48 152,48 Z"/>
</svg>
