<svg xmlns="http://www.w3.org/2000/svg" width="240" height="240" viewBox="0 0 240 240">
  <path fill="#FC8657" fill-rule="evenodd" d="M143.557861,168 C147.483264,161.979581 154.276891,158 162,158 C169.723109,158 176.516736,161.979581 180.442139,168 L188,168 C194.627417,168 200,173.372583 200,180 C200,186.627417 194.627417,192 188,192 L180.442139,192 C176.516736,198.020419 169.723109,202 162,202 C154.276891,202 147.483264,198.020419 143.557861,192 L52,192 C45.372583,192 40,186.627417 40,180 C40,173.372583 45.372583,168 52,168 L143.557861,168 Z M59.5578614,112 C63.4832637,105.979581 70.2768913,102 78,102 C85.7231087,102 92.5167363,105.979581 96.4421386,112 L188,112 C194.627417,112 200,117.372583 200,124 C200,130.627417 194.627417,136 188,136 L96.4421386,136 C92.5167363,142.020419 85.7231087,146 78,146 C70.2768913,146 63.4832637,142.020419 59.5578614,136 L52,136 C45.372583,136 40,130.627417 40,124 C40,117.372583 45.372583,112 52,112 L59.5578614,112 Z M143.557861,56 C147.483264,49.9795815 154.276891,46 162,46 C169.723109,46 176.516736,49.9795815 180.442139,56 L188,56 C194.627417,56 200,61.372583 200,68 C200,74.627417 194.627417,80 188,80 L180.442139,80 C176.516736,86.0204185 169.723109,90 162,90 C154.276891,90 147.483264,86.0204185 143.557861,80 L52,80 C45.372583,80 40,74.627417 40,68 C40,61.372583 45.372583,56 52,56 L143.557861,56 Z"/>
</svg>
