<svg id="Layer_1" xmlns="http://www.w3.org/2000/svg" viewBox="0 0 176.8 152.2"><path fill="#222" d="M67.5 16.9c5-8.6 16-11.6 24.6-6.6l18.4 10.6c.4-.2 35.3-18 37.3-18.8 8.5-3.2 15.4-3.1 21.7 1.6 5.2 3.8 7.3 9.2 7.2 16 0 2.9-.4 6.1-1.1 9.9-.9 4.6-2 9-4.4 16.8-1 3.4-13.2 33.8-13.2 33.8.2 2 .8 15.9-1.5 20.8 3.7 1.1 6.2 4.8 5.7 8.8 0 .3-.1.6-.2 1.1-.1.7-.3 1.5-.5 2.4-.6 2.4-1.5 4.8-2.7 7.2-1.2 2.4-2.7 4.6-4.5 6.4.1 1.4-.2 2.9-1 4.2-.1.2-4.2 5.8-5.9 7.3-6.9 6.4-15.9 9.1-26.1 6.2-9.9 5-21.1 7.7-32.6 7.7-11.7 0-22.9-2.7-32.9-7.9-10.4 3.2-19.6.5-26.7-6-1.7-1.5-5.8-7.1-5.9-7.3-.7-1.3-1-2.8-1-4.2-2.9-1.6-7.4-13.4-7.9-17-.6-3.6 2.4-8.3 6.6-9-1.6-4.6-1.7-17.2-1.6-18.6 0 0-13-32.4-14-35.8C3.2 38.6 2 34.3 1.1 29.6c-.7-3.8-1.1-7-1.1-9.9 0-6.8 2-12.2 7.2-16C13.6-.9 20.5-1 29 2.2c2 .7 36.6 18.3 36.8 18.5.4-1.3 1-2.6 1.7-3.8z"/><path fill="#222" d="M150.5 9.7c5.8-2.1 10.2-2.5 14.2.5 3.1 2.3 4 5.5 4 9.6 0 2.3-22.6 68.1-22.6 68.1L103.9 34s44.8-23.6 46.6-24.3z"/><path fill="#f2f2f2" d="M114.4 36s15-8.8 25.5-13.8 17.5-8.8 20.7-6.4c3.3 2.4-1.2 17.9-3.7 26.4s-12.5 32-12.5 32l-30-38.2z"/><path fill="#222" d="M26.2 9.7C20.5 7.6 16 7.2 12 10.2c-3.1 2.3-4 5.5-4 9.6 0 2.3 22.6 68.1 22.6 68.1L72.8 34S28 10.4 26.2 9.7z"/><path fill="#f2f2f2" d="M62.4 36s-15-8.8-25.5-13.8-17.5-8.8-20.7-6.4 1.2 17.9 3.7 26.4 12.5 32 12.5 32l30-38.2z"/><ellipse fill="#dd1d31" cx="88.9" cy="86.2" rx="61.5" ry="58"/><path fill="#f2f2f2" d="M154.4 108.7s-2 14.5-12.5 16c1.8 1.3 4.5 2.5 4.5 2.5s-8.5 15.7-25.6 8.6c-9.3 5.3-20.2 8.4-31.9 8.4-11.8 0-22.9-3.2-32.3-8.6-17.5 7.6-26.2-8.4-26.2-8.4s2.7-1.2 4.5-2.5c-10.5-1.5-12.5-16-12.5-16l66-5.5 66 5.5z"/><path d="M83.9 110.6c2.5 2.8 6.5 2.8 9 0l4.5-4.9c2.2-2.5.4-5.1-2.8-5.7 0 0-2.1-.7-6.1-.7s-6.1.7-6.1.7c-3.2.7-5.1 3.3-2.8 5.7l4.3 4.9z"/><path d="M73.6 121.2c.2.3 2.3 2.7 3.4 3.4 2.8 1.9 6.6 3.1 11.4 3.1s8.5-1.2 11.4-3.1c1-.7 3.2-3.2 3.4-3.4.7-1 .2-2.2-.8-2.7s-2.2-.2-2.7.8c0 .1-1.4 1.6-2.1 2.1-2.2 1.5-5.1 2.4-9.1 2.4s-7-.9-9.1-2.4c-.7-.5-2.1-2-2.1-2.1-.5-1-1.7-1.3-2.7-.8s-1.5 1.7-1 2.7z" fill="#aeafae"/><path fill="#222" d="M70.4-8.8c2.8 0 5 2.2 5 5v4c0 2.8-2.2 5-5 5s-5-2.2-5-5v-4c0-2.7 2.2-5 5-5zM4.4-8.8c2.8 0 5 2.2 5 5v4c0 2.8-2.2 5-5 5s-5-2.2-5-5v-4c0-2.7 2.2-5 5-5z" transform="translate(51 89)"/><path d="M74.4 29.9c-4.7 1.7-8 6.1-8 11.4 0 4.4 2.3 8.3 5.9 10.4-1.7 3.6-1.7 7.8.4 11.4C76 69 83.3 71 89 67.6l18.5-10.8-.8-1.8L88 65.9c-4.8 2.8-10.9 1.1-13.7-3.7-2.1-3.7-1.7-8.1.8-11.3-4-1.3-6.8-5.1-6.8-9.6 0-4.1 2.5-7.7 6-9.2v-2.2z" fill="#b2091a"/><path fill="#dd1d31" d="M107.1 54.6l-19 11c-4.8 2.8-10.9 1.1-13.7-3.7-2.1-3.6-1.7-8.1.8-11.2-4-1.3-6.8-5.1-6.8-9.5 0-4.3 2.8-8 6.6-9.4-2.3-3.1-2.7-7.4-.6-10.9 2.8-4.8 8.9-6.4 13.7-3.7l19 11c4.6 2.7 4.6 23.7 0 26.4z"/></svg>